<mxfile host="65bd71144e" modified="2021-02-09T21:22:13.794Z" agent="5.0 (Macintosh; Intel Mac OS X 11_2_0) AppleWebKit/537.36 (KHTML, like Gecko) Code/1.53.0 Chrome/87.0.4280.141 Electron/11.2.1 Safari/537.36" etag="CXtt6ZxgNlmzLrYr7uKt" version="14.2.4" type="embed">
    <diagram id="RYIWCqvo5ib80Qj71-xO" name="Page-1">
        <mxGraphModel dx="655" dy="653" grid="1" gridSize="10" guides="1" tooltips="0" connect="1" arrows="1" fold="1" page="1" pageScale="1" pageWidth="1100" pageHeight="850" math="0" shadow="0">
            <root>
                <mxCell id="0"/>
                <mxCell id="1" parent="0"/>
                <mxCell id="BWyOHfadWM58S0qas0ry-14" style="edgeStyle=orthogonalEdgeStyle;rounded=0;orthogonalLoop=1;jettySize=auto;html=1;endArrow=open;endFill=0;endSize=10;" parent="1" source="BWyOHfadWM58S0qas0ry-3" target="BWyOHfadWM58S0qas0ry-7" edge="1">
                    <mxGeometry relative="1" as="geometry">
                        <Array as="points">
                            <mxPoint x="660" y="200"/>
                            <mxPoint x="660" y="200"/>
                        </Array>
                    </mxGeometry>
                </mxCell>
                <mxCell id="BWyOHfadWM58S0qas0ry-23" value="has_one" style="edgeLabel;html=1;align=center;verticalAlign=middle;resizable=0;points=[];" parent="BWyOHfadWM58S0qas0ry-14" vertex="1" connectable="0">
                    <mxGeometry x="-0.0056" y="-4" relative="1" as="geometry">
                        <mxPoint x="20.67" y="-4" as="offset"/>
                    </mxGeometry>
                </mxCell>
                <mxCell id="BWyOHfadWM58S0qas0ry-15" style="edgeStyle=orthogonalEdgeStyle;rounded=0;orthogonalLoop=1;jettySize=auto;html=1;endArrow=ERmany;endFill=0;endSize=15;" parent="1" source="BWyOHfadWM58S0qas0ry-3" target="BWyOHfadWM58S0qas0ry-12" edge="1">
                    <mxGeometry relative="1" as="geometry">
                        <Array as="points">
                            <mxPoint x="550" y="290"/>
                            <mxPoint x="550" y="290"/>
                        </Array>
                    </mxGeometry>
                </mxCell>
                <mxCell id="BWyOHfadWM58S0qas0ry-24" value="has_many" style="edgeLabel;html=1;align=center;verticalAlign=middle;resizable=0;points=[];" parent="BWyOHfadWM58S0qas0ry-15" vertex="1" connectable="0">
                    <mxGeometry x="0.3446" relative="1" as="geometry">
                        <mxPoint y="-10.170000000000002" as="offset"/>
                    </mxGeometry>
                </mxCell>
                <mxCell id="BWyOHfadWM58S0qas0ry-28" style="rounded=0;orthogonalLoop=1;jettySize=auto;html=1;startArrow=openThin;startFill=0;startSize=15;endArrow=ERmany;endFill=0;endSize=15;jumpStyle=gap;entryX=0;entryY=0.5;entryDx=0;entryDy=0;edgeStyle=elbowEdgeStyle;targetPerimeterSpacing=0;" parent="1" target="BWyOHfadWM58S0qas0ry-13" edge="1">
                    <mxGeometry relative="1" as="geometry">
                        <mxPoint x="429" y="180" as="sourcePoint"/>
                        <Array as="points">
                            <mxPoint x="310" y="370"/>
                            <mxPoint x="390" y="390"/>
                            <mxPoint x="350" y="420"/>
                        </Array>
                    </mxGeometry>
                </mxCell>
                <mxCell id="BWyOHfadWM58S0qas0ry-30" value="has_one" style="edgeLabel;html=1;align=center;verticalAlign=middle;resizable=0;points=[];" parent="BWyOHfadWM58S0qas0ry-28" vertex="1" connectable="0">
                    <mxGeometry x="-0.712" y="1" relative="1" as="geometry">
                        <mxPoint x="44.33" y="-1" as="offset"/>
                    </mxGeometry>
                </mxCell>
                <mxCell id="BWyOHfadWM58S0qas0ry-31" value="has_many" style="edgeLabel;html=1;align=center;verticalAlign=middle;resizable=0;points=[];" parent="BWyOHfadWM58S0qas0ry-28" vertex="1" connectable="0">
                    <mxGeometry x="0.7798" y="-1" relative="1" as="geometry">
                        <mxPoint x="19.83" as="offset"/>
                    </mxGeometry>
                </mxCell>
                <mxCell id="BWyOHfadWM58S0qas0ry-3" value="&lt;p style=&quot;margin: 4px 0px 0px; font-size: 12px;&quot;&gt;&lt;b style=&quot;font-size: 12px;&quot;&gt;User&lt;/b&gt;&lt;/p&gt;&lt;hr style=&quot;font-size: 12px;&quot;&gt;:first_name&lt;br style=&quot;font-size: 12px;&quot;&gt;:last_name&lt;br style=&quot;font-size: 12px;&quot;&gt;&lt;br style=&quot;font-size: 12px;&quot;&gt;:email&lt;br style=&quot;font-size: 12px;&quot;&gt;:password_digest&lt;br style=&quot;font-size: 12px;&quot;&gt;&lt;p style=&quot;font-size: 12px;&quot;&gt;&lt;/p&gt;" style="verticalAlign=middle;align=center;overflow=fill;fontSize=12;fontFamily=Helvetica;html=1;perimeterSpacing=1;rounded=1;glass=0;shadow=1;sketch=0;strokeWidth=2;fillColor=#f5f5f5;strokeColor=#666666;fontColor=#333333;" parent="1" vertex="1">
                    <mxGeometry x="430" y="120" width="160" height="120" as="geometry"/>
                </mxCell>
                <mxCell id="BWyOHfadWM58S0qas0ry-19" style="edgeStyle=orthogonalEdgeStyle;rounded=0;orthogonalLoop=1;jettySize=auto;html=1;endArrow=open;endFill=0;endSize=10;" parent="1" source="BWyOHfadWM58S0qas0ry-7" target="BWyOHfadWM58S0qas0ry-3" edge="1">
                    <mxGeometry relative="1" as="geometry">
                        <Array as="points">
                            <mxPoint x="670" y="160"/>
                            <mxPoint x="670" y="160"/>
                        </Array>
                    </mxGeometry>
                </mxCell>
                <mxCell id="BWyOHfadWM58S0qas0ry-22" value="belongs_to" style="edgeLabel;html=1;align=center;verticalAlign=middle;resizable=0;points=[];" parent="BWyOHfadWM58S0qas0ry-19" vertex="1" connectable="0">
                    <mxGeometry x="-0.3192" y="-1" relative="1" as="geometry">
                        <mxPoint x="-29" y="1" as="offset"/>
                    </mxGeometry>
                </mxCell>
                <mxCell id="BWyOHfadWM58S0qas0ry-7" value="&lt;p style=&quot;margin: 4px 0px 0px; line-height: 100%; font-size: 12px;&quot;&gt;&lt;b style=&quot;font-size: 12px;&quot;&gt;Monster&lt;/b&gt;&lt;/p&gt;&lt;hr style=&quot;font-size: 12px;&quot;&gt;:name&lt;br style=&quot;font-size: 12px;&quot;&gt;:health&lt;br style=&quot;font-size: 12px;&quot;&gt;&lt;br style=&quot;font-size: 12px;&quot;&gt;:user_id" style="verticalAlign=middle;align=center;overflow=fill;fontSize=12;fontFamily=Helvetica;html=1;perimeterSpacing=1;rounded=1;glass=0;shadow=1;sketch=0;strokeWidth=2;fillColor=#f5f5f5;strokeColor=#666666;fontColor=#333333;" parent="1" vertex="1">
                    <mxGeometry x="710" y="120" width="160" height="120" as="geometry"/>
                </mxCell>
                <mxCell id="BWyOHfadWM58S0qas0ry-16" style="edgeStyle=orthogonalEdgeStyle;rounded=0;orthogonalLoop=1;jettySize=auto;html=1;endArrow=open;endFill=0;endSize=10;" parent="1" source="BWyOHfadWM58S0qas0ry-12" target="BWyOHfadWM58S0qas0ry-13" edge="1">
                    <mxGeometry relative="1" as="geometry">
                        <Array as="points">
                            <mxPoint x="470" y="550"/>
                            <mxPoint x="470" y="550"/>
                        </Array>
                    </mxGeometry>
                </mxCell>
                <mxCell id="BWyOHfadWM58S0qas0ry-17" value="has_one" style="edgeLabel;html=1;align=center;verticalAlign=middle;resizable=0;points=[];" parent="BWyOHfadWM58S0qas0ry-16" vertex="1" connectable="0">
                    <mxGeometry x="-0.0508" relative="1" as="geometry">
                        <mxPoint y="23.17" as="offset"/>
                    </mxGeometry>
                </mxCell>
                <mxCell id="BWyOHfadWM58S0qas0ry-20" style="edgeStyle=orthogonalEdgeStyle;rounded=0;orthogonalLoop=1;jettySize=auto;html=1;endArrow=open;endFill=0;endSize=10;" parent="1" source="BWyOHfadWM58S0qas0ry-12" target="BWyOHfadWM58S0qas0ry-3" edge="1">
                    <mxGeometry relative="1" as="geometry">
                        <Array as="points">
                            <mxPoint x="470" y="310"/>
                            <mxPoint x="470" y="310"/>
                        </Array>
                    </mxGeometry>
                </mxCell>
                <mxCell id="BWyOHfadWM58S0qas0ry-25" value="belongs_to" style="edgeLabel;html=1;align=center;verticalAlign=middle;resizable=0;points=[];" parent="BWyOHfadWM58S0qas0ry-20" vertex="1" connectable="0">
                    <mxGeometry x="-0.1045" relative="1" as="geometry">
                        <mxPoint y="-36.5" as="offset"/>
                    </mxGeometry>
                </mxCell>
                <mxCell id="BWyOHfadWM58S0qas0ry-12" value="&lt;p style=&quot;margin: 4px 0px 0px; font-size: 12px;&quot;&gt;&lt;b style=&quot;font-size: 12px;&quot;&gt;Entry&lt;/b&gt;&lt;/p&gt;&lt;hr style=&quot;font-size: 12px;&quot;&gt;:title&lt;br style=&quot;font-size: 12px;&quot;&gt;:note&lt;br style=&quot;font-size: 12px;&quot;&gt;&lt;br style=&quot;font-size: 12px;&quot;&gt;:user_id" style="verticalAlign=middle;align=center;overflow=fill;fontSize=12;fontFamily=Helvetica;html=1;perimeterSpacing=1;rounded=1;glass=0;shadow=1;sketch=0;strokeWidth=2;fillColor=#f5f5f5;strokeColor=#666666;fontColor=#333333;" parent="1" vertex="1">
                    <mxGeometry x="430" y="360" width="160" height="120" as="geometry"/>
                </mxCell>
                <mxCell id="BWyOHfadWM58S0qas0ry-21" style="edgeStyle=orthogonalEdgeStyle;rounded=0;orthogonalLoop=1;jettySize=auto;html=1;endArrow=open;endFill=0;endSize=10;" parent="1" source="BWyOHfadWM58S0qas0ry-13" target="BWyOHfadWM58S0qas0ry-12" edge="1">
                    <mxGeometry relative="1" as="geometry">
                        <Array as="points">
                            <mxPoint x="550" y="540"/>
                            <mxPoint x="550" y="540"/>
                        </Array>
                    </mxGeometry>
                </mxCell>
                <mxCell id="BWyOHfadWM58S0qas0ry-26" value="belongs_to" style="edgeLabel;html=1;align=center;verticalAlign=middle;resizable=0;points=[];" parent="BWyOHfadWM58S0qas0ry-21" vertex="1" connectable="0">
                    <mxGeometry x="0.3757" relative="1" as="geometry">
                        <mxPoint as="offset"/>
                    </mxGeometry>
                </mxCell>
                <mxCell id="BWyOHfadWM58S0qas0ry-13" value="&lt;p style=&quot;margin: 4px 0px 0px; line-height: 100%; font-size: 12px;&quot;&gt;&lt;b style=&quot;font-size: 12px;&quot;&gt;Mood&lt;/b&gt;&lt;/p&gt;&lt;hr style=&quot;font-size: 12px;&quot;&gt;:name&lt;br style=&quot;font-size: 12px;&quot;&gt;:effect&lt;br style=&quot;font-size: 12px;&quot;&gt;:amount&lt;br style=&quot;font-size: 12px;&quot;&gt;&lt;br style=&quot;font-size: 12px;&quot;&gt;:entry_id" style="verticalAlign=middle;align=center;overflow=fill;fontSize=12;fontFamily=Helvetica;html=1;perimeterSpacing=1;rounded=1;glass=0;shadow=1;sketch=0;strokeWidth=2;fillColor=#f5f5f5;strokeColor=#666666;fontColor=#333333;" parent="1" vertex="1">
                    <mxGeometry x="430" y="600" width="160" height="120" as="geometry"/>
                </mxCell>
                <mxCell id="BWyOHfadWM58S0qas0ry-33" value="&lt;p style=&quot;margin: 4px 0px 0px ; font-size: 12px&quot;&gt;&lt;b&gt;user_moods&lt;/b&gt;&lt;/p&gt;&lt;hr&gt;:user_id&lt;br&gt;:entry_id" style="verticalAlign=middle;align=center;overflow=fill;fontSize=12;fontFamily=Helvetica;html=1;perimeterSpacing=1;rounded=1;glass=0;shadow=1;sketch=0;strokeWidth=2;" parent="1" vertex="1">
                    <mxGeometry x="230" y="360" width="160" height="120" as="geometry"/>
                </mxCell>
            </root>
        </mxGraphModel>
    </diagram>
</mxfile>